<svg width="340" height="33" viewBox="0 0 340 33" fill="none" xmlns="http://www.w3.org/2000/svg">
<rect x="225" y="2" width="115" height="29" fill="#CFCFCF"/>
<path d="M69 2H226V31H69V2Z" fill="#FFBC35"/>
<path d="M243 17.1281L226 31V2L243 17.1281Z" fill="#FFBC35"/>
<rect y="2" width="69" height="29" fill="#B1B1B1"/>
<path d="M85.3387 16.2744L68.582 30.318L68.6214 2.18398L85.3387 16.2744Z" fill="#B1B1B1"/>
<path d="M15.7447 22.216C11.7607 22.216 9.7687 20.086 9.7687 15.826C9.7687 13.69 10.2907 12.094 11.3347 11.038C12.3787 9.97 13.8487 9.436 15.7447 9.436C16.7887 9.436 17.7247 9.616 18.5527 9.976C19.3927 10.324 20.0527 10.864 20.5327 11.596C21.0247 12.316 21.2707 13.198 21.2707 14.242H18.5887C18.5887 13.438 18.3307 12.808 17.8147 12.352C17.2987 11.884 16.6267 11.65 15.7987 11.65C14.6707 11.65 13.8307 11.986 13.2787 12.658C12.7267 13.33 12.4507 14.296 12.4507 15.556V16.096C12.4507 18.7 13.5667 20.002 15.7987 20.002C16.6747 20.002 17.3707 19.774 17.8867 19.318C18.4147 18.862 18.6787 18.232 18.6787 17.428H21.2707C21.2707 18.484 21.0307 19.372 20.5507 20.092C20.0707 20.8 19.4167 21.334 18.5887 21.694C17.7607 22.042 16.8127 22.216 15.7447 22.216ZM26.8629 9.652H30.1389L34.9629 22H32.1189L31.2369 19.642H25.6209L24.7389 22H22.0389L26.8629 9.652ZM30.4089 17.464L29.2389 14.332C29.0949 13.948 28.8369 13.138 28.4649 11.902H28.3749C28.0029 13.138 27.7449 13.948 27.6009 14.332L26.4309 17.464H30.4089ZM36.1992 9.652H42.7512C44.1312 9.652 45.1692 9.994 45.8652 10.678C46.5612 11.35 46.9092 12.298 46.9092 13.522C46.9092 15.25 46.1892 16.402 44.7492 16.978L47.2692 22H44.4432L42.2652 17.392H38.8092V22H36.1992V9.652ZM42.5172 15.214C43.0812 15.214 43.5132 15.064 43.8132 14.764C44.1132 14.464 44.2632 14.05 44.2632 13.522C44.2632 12.994 44.1132 12.586 43.8132 12.298C43.5132 12.01 43.0812 11.866 42.5172 11.866H38.8092V15.214H42.5172ZM52.1774 11.902H48.3614V9.652H58.6034V11.902H54.7874V22H52.1774V11.902Z" fill="white"/>
<path d="M15.7447 22.216C11.7607 22.216 9.7687 20.086 9.7687 15.826C9.7687 13.69 10.2907 12.094 11.3347 11.038C12.3787 9.97 13.8487 9.436 15.7447 9.436C16.7887 9.436 17.7247 9.616 18.5527 9.976C19.3927 10.324 20.0527 10.864 20.5327 11.596C21.0247 12.316 21.2707 13.198 21.2707 14.242H18.5887C18.5887 13.438 18.3307 12.808 17.8147 12.352C17.2987 11.884 16.6267 11.65 15.7987 11.65C14.6707 11.65 13.8307 11.986 13.2787 12.658C12.7267 13.33 12.4507 14.296 12.4507 15.556V16.096C12.4507 18.7 13.5667 20.002 15.7987 20.002C16.6747 20.002 17.3707 19.774 17.8867 19.318C18.4147 18.862 18.6787 18.232 18.6787 17.428H21.2707C21.2707 18.484 21.0307 19.372 20.5507 20.092C20.0707 20.8 19.4167 21.334 18.5887 21.694C17.7607 22.042 16.8127 22.216 15.7447 22.216ZM26.8629 9.652H30.1389L34.9629 22H32.1189L31.2369 19.642H25.6209L24.7389 22H22.0389L26.8629 9.652ZM30.4089 17.464L29.2389 14.332C29.0949 13.948 28.8369 13.138 28.4649 11.902H28.3749C28.0029 13.138 27.7449 13.948 27.6009 14.332L26.4309 17.464H30.4089ZM36.1992 9.652H42.7512C44.1312 9.652 45.1692 9.994 45.8652 10.678C46.5612 11.35 46.9092 12.298 46.9092 13.522C46.9092 15.25 46.1892 16.402 44.7492 16.978L47.2692 22H44.4432L42.2652 17.392H38.8092V22H36.1992V9.652ZM42.5172 15.214C43.0812 15.214 43.5132 15.064 43.8132 14.764C44.1132 14.464 44.2632 14.05 44.2632 13.522C44.2632 12.994 44.1132 12.586 43.8132 12.298C43.5132 12.01 43.0812 11.866 42.5172 11.866H38.8092V15.214H42.5172ZM52.1774 11.902H48.3614V9.652H58.6034V11.902H54.7874V22H52.1774V11.902Z" fill="white"/>
<path d="M94.373 9.652H96.983V22H94.373V9.652ZM99.3828 9.652H101.921L106.673 16.366C106.817 16.57 107.057 16.972 107.393 17.572L107.483 17.518L107.429 16.474V9.652H109.967V22H107.429L102.659 15.232C102.431 14.908 102.197 14.512 101.957 14.044L101.867 14.098C101.903 14.614 101.921 14.974 101.921 15.178V22H99.3828V9.652ZM112.373 9.652H121.319V11.866H114.983V14.908H120.653V17.122H114.983V22H112.373V9.652ZM129.173 22.216C127.193 22.216 125.657 21.688 124.565 20.632C123.473 19.564 122.927 17.962 122.927 15.826C122.927 13.69 123.473 12.094 124.565 11.038C125.657 9.97 127.193 9.436 129.173 9.436C131.165 9.436 132.707 9.97 133.799 11.038C134.891 12.094 135.437 13.69 135.437 15.826C135.437 17.962 134.891 19.564 133.799 20.632C132.707 21.688 131.165 22.216 129.173 22.216ZM129.173 20.002C130.349 20.002 131.237 19.666 131.837 18.994C132.449 18.31 132.755 17.344 132.755 16.096V15.556C132.755 14.308 132.449 13.348 131.837 12.676C131.237 11.992 130.349 11.65 129.173 11.65C127.997 11.65 127.109 11.992 126.509 12.676C125.909 13.348 125.609 14.308 125.609 15.556V16.096C125.609 17.344 125.909 18.31 126.509 18.994C127.109 19.666 127.997 20.002 129.173 20.002ZM137.387 9.652H143.939C145.319 9.652 146.357 9.994 147.053 10.678C147.749 11.35 148.097 12.298 148.097 13.522C148.097 15.25 147.377 16.402 145.937 16.978L148.457 22H145.631L143.453 17.392H139.997V22H137.387V9.652ZM143.705 15.214C144.269 15.214 144.701 15.064 145.001 14.764C145.301 14.464 145.451 14.05 145.451 13.522C145.451 12.994 145.301 12.586 145.001 12.298C144.701 12.01 144.269 11.866 143.705 11.866H139.997V15.214H143.705ZM150.377 9.652H154.445L156.173 16.456C156.305 16.972 156.497 17.902 156.749 19.246H156.839C157.055 17.842 157.223 16.912 157.343 16.456L159.071 9.652H162.959V22H160.349V14.134C160.349 13.786 160.385 13.126 160.457 12.154H160.367L159.989 13.612L157.865 22H155.381L153.257 13.612L152.879 12.154H152.789C152.861 13.162 152.897 13.822 152.897 14.134V22H150.377V9.652ZM169.025 9.652H172.301L177.125 22H174.281L173.399 19.642H167.783L166.901 22H164.201L169.025 9.652ZM172.571 17.464L171.401 14.332C171.257 13.948 170.999 13.138 170.627 11.902H170.537C170.165 13.138 169.907 13.948 169.763 14.332L168.593 17.464H172.571ZM180.013 11.902H176.197V9.652H186.439V11.902H182.623V22H180.013V11.902ZM188.029 9.652H190.639V22H188.029V9.652ZM198.835 22.216C196.855 22.216 195.319 21.688 194.227 20.632C193.135 19.564 192.589 17.962 192.589 15.826C192.589 13.69 193.135 12.094 194.227 11.038C195.319 9.97 196.855 9.436 198.835 9.436C200.827 9.436 202.369 9.97 203.461 11.038C204.553 12.094 205.099 13.69 205.099 15.826C205.099 17.962 204.553 19.564 203.461 20.632C202.369 21.688 200.827 22.216 198.835 22.216ZM198.835 20.002C200.011 20.002 200.899 19.666 201.499 18.994C202.111 18.31 202.417 17.344 202.417 16.096V15.556C202.417 14.308 202.111 13.348 201.499 12.676C200.899 11.992 200.011 11.65 198.835 11.65C197.659 11.65 196.771 11.992 196.171 12.676C195.571 13.348 195.271 14.308 195.271 15.556V16.096C195.271 17.344 195.571 18.31 196.171 18.994C196.771 19.666 197.659 20.002 198.835 20.002ZM207.049 9.652H209.587L214.339 16.366C214.483 16.57 214.723 16.972 215.059 17.572L215.149 17.518L215.095 16.474V9.652H217.633V22H215.095L210.325 15.232C210.097 14.908 209.863 14.512 209.623 14.044L209.533 14.098C209.569 14.614 209.587 14.974 209.587 15.178V22H207.049V9.652Z" fill="white"/>
<path d="M247.702 9.652H253.588C254.968 9.652 256.006 10.006 256.702 10.714C257.398 11.41 257.746 12.4 257.746 13.684C257.746 14.968 257.38 15.97 256.648 16.69C255.928 17.398 254.848 17.752 253.408 17.752H250.312V22H247.702V9.652ZM253.354 15.538C253.918 15.538 254.35 15.376 254.65 15.052C254.95 14.728 255.1 14.272 255.1 13.684C255.1 13.108 254.95 12.664 254.65 12.352C254.35 12.028 253.918 11.866 253.354 11.866H250.312V15.538H253.354ZM262.026 9.652H265.302L270.126 22H267.282L266.4 19.642H260.784L259.902 22H257.202L262.026 9.652ZM265.572 17.464L264.402 14.332C264.258 13.948 264 13.138 263.628 11.902H263.538C263.166 13.138 262.908 13.948 262.764 14.332L261.594 17.464H265.572ZM273.22 17.014L268.504 9.652H271.474L274.552 14.692H274.642L277.684 9.652H280.51L275.83 17.014V22H273.22V17.014ZM281.716 9.652H285.784L287.512 16.456C287.644 16.972 287.836 17.902 288.088 19.246H288.178C288.394 17.842 288.562 16.912 288.682 16.456L290.41 9.652H294.298V22H291.688V14.134C291.688 13.786 291.724 13.126 291.796 12.154H291.706L291.328 13.612L289.204 22H286.72L284.596 13.612L284.218 12.154H284.128C284.2 13.162 284.236 13.822 284.236 14.134V22H281.716V9.652ZM296.71 9.652H306.412V11.866H299.32V14.584H305.62V16.798H299.32V19.786H306.52V22H296.71V9.652ZM308.716 9.652H311.254L316.006 16.366C316.15 16.57 316.39 16.972 316.726 17.572L316.816 17.518L316.762 16.474V9.652H319.3V22H316.762L311.992 15.232C311.764 14.908 311.53 14.512 311.29 14.044L311.2 14.098C311.236 14.614 311.254 14.974 311.254 15.178V22H308.716V9.652ZM324.694 11.902H320.878V9.652H331.12V11.902H327.304V22H324.694V11.902Z" fill="white"/>
</svg>
